<?xml version="1.0" encoding="UTF-8"?>
<svg id="Layer_1" xmlns="http://www.w3.org/2000/svg" version="1.1" viewBox="0 0 1080 1080">
  <!-- Generator: Adobe Illustrator 29.5.0, SVG Export Plug-In . SVG Version: 2.1.0 Build 137)  -->
  <defs>
    <style>
      .st0 {
        fill: #998657;
      }
    </style>
  </defs>
  <g>
    <path class="st0" d="M311.12,188v-16.13l548.58-.38v343.6l-482.54.75c-.64,8.26-2.23,16.31-1.5,24.76h497.92c.15,0,1.15-1.48,1.94-1.84,4.42-1.99,4.42-1.04,6.78-5.8.28-.56,1.28-.63,1.39-1.15.24-1.14.79-6.14.81-7.38,1.25-90.9-.72-182.96-.84-273.79-.04-28.86,2.78-58.9.85-87.81-.4-5.94-.8-11.22-6.3-14.33-.81-.46-2.01-.05-2.55-.47-.41-.32-.12-1.3-.18-1.3h-190.61c-.34-2.37.6-5.94-.23-8.06-.58-1.5-6.34-4.97-8.37-3.97l-183.13.05c-7.71.65-6.24,4.11-6.5,10.76l-.6.9-189.59.27c-1.17,1.58-3.09,1.31-3.84,1.8-1.12.72-3.12,3.97-4.66,4.86-2.25,6.71-1.65,13.6-1.42,20.63l24.62,14.03ZM277.88,198.01c-72.33-25.91-135.05,47.85-100.56,113.6,21.01,40.05,71.87,55.15,111.17,31.76,21.43-12.76,32.58-29.07,38.56-52.79,5.3-21.01-.43-45.17-11.66-62.59-7.56-11.72-25.23-25.59-37.51-29.99ZM161.03,573.61v44.64c0,.12.74,2.19,1.49,1.87-.89-2.9,1.09-2.74,1.73-3.93,3.28-6.12,10.42-15.86,15.85-21.25,6.41-6.38,16.78-13.72,25.1-16.99l.2-1.98c49.63-23.32,104.24-10.88,136.04,34.1,2.37,3.36,4.75,6.74,7.2,10.04l-.02-36.42c2.34-28.78,1.12-57.69,4.52-86.26.73-6.15.43-8.09,2.5-14.01,4.85-13.92,6.96-16.07,19.4-23.2,33.7-19.34,72.84-36.68,108.83-53.23,12.4-5.7,26.48-12.54,39.43-18.5,9.54-4.39,23.41-8.07,30.65-15.15,1.06-1.04,6.89-9.72,7.31-10.72,7.35-17.82-2.82-38.8-21.05-43.91-11.95-3.35-19.15.39-30.09,4.08-49.4,16.66-98.12,35.47-146.62,50.7-10.68,3.35-22.26,7.93-32.65,10.13-7.09,1.5-8.26,1.13-14.88.21-34.42-4.79-67.01-8.97-101.27-3.04-20.73,3.59-45.92,9.97-61.77,23.2-11.42,9.53-9.31,13.42-13.71,26.5-1.98,5.9-4.15,11.8-6,17.37-11.05,33.26-22.61,65.53-32.91,97.05-9.37,28.66-17.22,59.15-28.06,85.12-3.38,8.09-5.88,19.95-8.05,28.57-.16.65-1.36.23-1.53,1.6-.16,1.26-.19,5.56.08,6.66.14.57,1.35.46,1.47,1.03,1.58,7.09,1.84,12.87,7.57,18.44,12.07,11.72,26.65,13.05,40.34,5.9,3-1.56,9.81-7.63,11.61-10.78,1.39-2.43,2.99-6.67,4.08-9.4,2.88-7.27,4.6-15.07,7.19-22.81,7.59-22.62,15.19-45.71,22.97-67.21.81-2.24.85-6.74,3.07-8.42ZM575.08,567.1c-3.08-1.42-19.56.49-23.4,1.3-30.79,6.47-54.75,28.61-61.98,57.2-.16.62-1.34.49-1.46,1.04-9.24,41.18,11.27,83.68,51.65,97.51,41.76,14.31,86.93-6.94,101.66-46.38,1.08-2.9,3.82-8.95,4.26-10.9,3.5-15.37,1.59-31.08-2.93-44.32-2.49-7.29-4.52-13.18-8.55-19.46-11.32-17.64-32.16-30.55-52.73-34.68-3.39-.68-3.09.26-6.52-1.32ZM281.65,593.36c-4.91-2.04-20.67-4.01-26.4-4.02-36.01-.08-69.17,25.19-78.29,59.09-.47,1.74-1.57,4.84-1.66,5.22-2.74,11.82-1.34,27.18,1.66,37.95,13.72,49.38,67.3,72.67,113.27,51.47,40.52-18.69,57.11-70.79,36.55-110.3-9.58-18.41-27.01-31.89-45.14-39.41ZM917.96,600.16c-31.72-17.46-72.78-12.94-98.01,12.83-40.55,41.43-26.34,109.8,25,131.38,75.08,31.57,145.35-54.38,97.8-120.67-5.77-8.04-16.13-18.77-24.79-23.54Z"/>
    <path class="st0" d="M161.03,573.61c-2.21,1.68-2.26,6.18-3.07,8.42-7.77,21.5-15.38,44.59-22.97,67.21-2.6,7.74-4.32,15.54-7.19,22.81-1.08,2.74-2.69,6.97-4.08,9.4-1.8,3.15-8.61,9.22-11.61,10.78-13.7,7.15-28.27,5.82-40.34-5.9-5.73-5.56-5.99-11.35-7.57-18.44-.13-.56-1.34-.45-1.47-1.03-.26-1.11-.24-5.4-.08-6.66.18-1.37,1.37-.95,1.53-1.6,2.17-8.63,4.67-20.48,8.05-28.57,10.84-25.97,18.69-56.45,28.06-85.12,10.3-31.52,21.86-63.78,32.91-97.05,1.85-5.57,4.02-11.47,6-17.37,4.4-13.08,2.29-16.97,13.71-26.5,15.85-13.23,41.04-19.6,61.77-23.2,34.26-5.94,66.85-1.76,101.27,3.04,6.62.92,7.79,1.29,14.88-.21,10.39-2.2,21.97-6.78,32.65-10.13,48.5-15.23,97.22-34.04,146.62-50.7,10.94-3.69,18.13-7.43,30.09-4.08,18.23,5.11,28.4,26.09,21.05,43.91-.41,1-6.24,9.68-7.31,10.72-7.24,7.08-21.11,10.76-30.65,15.15-12.95,5.96-27.03,12.8-39.43,18.5-35.99,16.55-75.12,33.9-108.83,53.23-12.44,7.14-14.55,9.29-19.4,23.2-2.06,5.92-1.76,7.86-2.5,14.01-3.4,28.57-2.18,57.47-4.52,86.26l.02,36.42c-2.45-3.3-4.83-6.68-7.2-10.04-31.81-44.98-86.41-57.42-136.04-34.1l-.2,1.98c-8.32,3.27-18.69,10.62-25.1,16.99-5.42,5.39-12.57,15.13-15.85,21.25-.64,1.19-2.62,1.02-1.73,3.93-.76.32-1.49-1.75-1.49-1.87v-44.64Z"/>
    <path class="st0" d="M311.12,188l-24.62-14.03c-.23-7.03-.82-13.93,1.42-20.63,1.54-.89,3.54-4.14,4.66-4.86.76-.49,2.67-.22,3.84-1.8l189.59-.27.6-.9c.26-6.66-1.22-10.11,6.5-10.76l183.13-.05c2.03-1,7.79,2.48,8.37,3.97.82,2.12-.11,5.69.23,8.06h190.61c.07,0-.22.98.18,1.3.55.42,1.74,0,2.55.47,5.49,3.11,5.9,8.4,6.3,14.33,1.93,28.91-.89,58.95-.85,87.81.13,90.84,2.09,182.9.84,273.79-.02,1.24-.56,6.24-.81,7.38-.11.52-1.11.59-1.39,1.15-2.36,4.76-2.36,3.81-6.78,5.8-.79.36-1.8,1.84-1.94,1.84h-497.92c-.73-8.45.86-16.5,1.5-24.76l482.54-.75V171.49l-548.58.38v16.13Z"/>
    <path class="st0" d="M281.65,593.36c18.13,7.52,35.56,21,45.14,39.41,20.56,39.51,3.97,91.61-36.55,110.3-45.97,21.2-99.55-2.08-113.27-51.47-2.99-10.77-4.4-26.13-1.66-37.95.09-.37,1.19-3.47,1.66-5.22,9.12-33.91,42.28-59.17,78.29-59.09,5.73.01,21.49,1.98,26.4,4.02Z"/>
    <path class="st0" d="M575.08,567.1c3.44,1.58,3.13.64,6.52,1.32,20.57,4.13,41.4,17.04,52.73,34.68,4.03,6.28,6.06,12.17,8.55,19.46,4.52,13.24,6.43,28.95,2.93,44.32-.44,1.95-3.18,7.99-4.26,10.9-14.73,39.44-59.9,60.68-101.66,46.38-40.38-13.83-60.89-56.34-51.65-97.51.12-.55,1.31-.42,1.46-1.04,7.23-28.59,31.19-50.73,61.98-57.2,3.84-.81,20.32-2.72,23.4-1.3Z"/>
    <path class="st0" d="M917.96,600.16c8.66,4.77,19.03,15.5,24.79,23.54,47.55,66.29-22.71,152.24-97.8,120.67-51.34-21.59-65.55-89.95-25-131.38,25.22-25.77,66.29-30.29,98.01-12.83Z"/>
    <path class="st0" d="M277.88,198.01c12.28,4.4,29.95,18.26,37.51,29.99,11.23,17.42,16.96,41.58,11.66,62.59-5.98,23.72-17.13,40.03-38.56,52.79-39.3,23.4-90.16,8.3-111.17-31.76-34.49-65.75,28.23-139.51,100.56-113.6Z"/>
  </g>
  <path class="st0" d="M296.02,771.65c-2.9-1.3-25.76-4.48-30.17-4.76-43.76-2.82-94.13,14.33-124.28,46.88-21.45,23.16-22.85,55.47-20.21,87.06.48,5.72,3.44,13.35,7.75,17.38,9.93,9.27,33.08,16.17,46.09,18.82,49.97,10.18,102.31,10.39,151.98,1.53,15.11-2.7,42.13-9.79,53.57-20.35,1.37-1.26,5.13-7.2,5.69-8.94.79-2.48.17-4.19.59-6.04.13-.56,1.33-.45,1.47-1.03.82-3.43.65-33.03.08-37.42-.18-1.39-1.4-.98-1.54-1.59-.58-2.49.28-6.62-.08-9.55-2.09-17.2-12.89-35.83-26.24-47.16-1.81-1.54-6.41-3.56-7.73-5-.7-.77-.33-1.95-.59-2.17-.46-.39-1.85.11-2.69-.35-.38-.21-1.29-1.97-2.01-2.46-15.41-10.59-33.75-19.82-50.98-23.58-.55-.12-.51-1.17-.71-1.25Z"/>
  <path class="st0" d="M608.13,755.98c-2.9-1.3-25.76-4.48-30.17-4.76-43.76-2.82-94.13,14.33-124.28,46.88-21.45,23.16-22.85,55.47-20.21,87.06.48,5.72,3.44,13.35,7.75,17.38,9.93,9.27,33.08,16.17,46.09,18.82,49.97,10.18,102.31,10.39,151.98,1.53,15.11-2.7,42.13-9.79,53.57-20.35,1.37-1.26,5.13-7.2,5.69-8.94.79-2.48.17-4.19.59-6.04.13-.56,1.33-.45,1.47-1.03.82-3.43.65-33.03.08-37.42-.18-1.39-1.4-.98-1.54-1.59-.58-2.49.28-6.62-.08-9.55-2.09-17.2-12.89-35.83-26.24-47.16-1.81-1.54-6.41-3.56-7.73-5-.7-.77-.33-1.95-.59-2.17-.46-.39-1.85.11-2.69-.35-.38-.21-1.29-1.97-2.01-2.46-15.41-10.59-33.75-19.82-50.98-23.58-.55-.12-.51-1.17-.71-1.25Z"/>
  <path class="st0" d="M920.26,772.19c-2.9-1.3-25.76-4.48-30.17-4.76-43.76-2.82-94.13,14.33-124.28,46.88-21.45,23.16-22.85,55.47-20.21,87.06.48,5.72,3.44,13.35,7.75,17.38,9.93,9.27,33.08,16.17,46.09,18.82,49.97,10.18,102.31,10.39,151.98,1.53,15.11-2.7,42.13-9.79,53.57-20.35,1.37-1.26,5.13-7.2,5.69-8.94.79-2.48.17-4.19.59-6.04.13-.56,1.33-.45,1.47-1.03.82-3.43.65-33.03.08-37.42-.18-1.39-1.4-.98-1.54-1.59-.58-2.49.28-6.62-.08-9.55-2.09-17.2-12.89-35.83-26.24-47.16-1.81-1.54-6.41-3.56-7.73-5-.7-.77-.33-1.95-.59-2.17-.46-.39-1.85.11-2.69-.35-.38-.21-1.29-1.97-2.01-2.46-15.41-10.59-33.75-19.82-50.98-23.58-.55-.12-.51-1.17-.71-1.25Z"/>
</svg>